<svg
              xmlns="http://www.w3.org/2000/svg"
              zoomAndPan="magnify"
              viewBox="0 0 375 374.999991"
              preserveAspectRatio="xMidYMid meet"
              version="1.0"
              width={102}
              height={80}
              fill="currentcolor"
              style={{ display: "block" }}
            >
              <defs>
                <g />
                <clipPath id="0565a346ca">
                  <path
                    d="M 0 172.769531 L 375 172.769531 L 375 202.019531 L 0 202.019531 Z M 0 172.769531 "
                    clipRule="nonzero"
                  />
                </clipPath>
              </defs>
              <rect
                x="-37.5"
                width="450"
                fill="#ffffff"
                y="-37.499999"
                height="449.999989"
                fillOpacity="1"
              />
              <rect
                x="-37.5"
                width="450"
                fill="#ffffff"
                y="-37.499999"
                height="449.999989"
                fillOpacity="1"
              />
              <rect
                x="-37.5"
                width="450"
                fill="#ffffff"
                y="-37.499999"
                height="449.999989"
                fillOpacity="1"
              />
              <g fill="#000000" fillOpacity="1">
                <g transform="translate(35.146682, 269.783923)">
                  <g>
                    <path d="M 131.296875 -164.53125 L 140.171875 -164.53125 L 140.171875 0 L 132.4375 0 L 33.90625 -146.328125 L 33.90625 0 L 25.03125 0 L 25.03125 -164.53125 L 32.3125 -164.53125 L 131.296875 -17.75 Z M 131.296875 -164.53125 " />
                  </g>
                </g>
              </g>
              <g fill="#000000" fillOpacity="1">
                <g transform="translate(190.573882, 269.783923)">
                  <g>
                    <path d="M 25.03125 0 L 25.03125 -164.53125 L 71.234375 -164.53125 C 89.660156 -164.53125 103.972656 -160.890625 114.171875 -153.609375 C 124.378906 -146.328125 129.484375 -135.78125 129.484375 -121.96875 C 129.484375 -112.644531 127.015625 -104.757812 122.078125 -98.3125 C 117.148438 -91.863281 108.769531 -86.929688 96.9375 -83.515625 C 103.007812 -82.523438 108.335938 -80.910156 112.921875 -78.671875 C 117.515625 -76.441406 121.347656 -73.675781 124.421875 -70.375 C 127.492188 -67.070312 129.785156 -63.203125 131.296875 -58.765625 C 132.816406 -54.328125 133.578125 -49.378906 133.578125 -43.921875 C 133.578125 -29.273438 128.171875 -18.289062 117.359375 -10.96875 C 106.554688 -3.65625 91.40625 0 71.90625 0 Z M 33.90625 -9.328125 L 70.765625 -9.328125 C 88.296875 -9.328125 101.664062 -11.847656 110.875 -16.890625 C 120.09375 -21.941406 124.703125 -30.492188 124.703125 -42.546875 C 124.703125 -51.421875 122.40625 -58.492188 117.8125 -63.765625 C 113.226562 -69.046875 107.085938 -72.820312 99.390625 -75.09375 C 91.691406 -77.375 83.210938 -78.515625 73.953125 -78.515625 L 33.90625 -78.515625 Z M 33.90625 -87.84375 L 73.953125 -87.84375 C 79.109375 -87.84375 84.398438 -88.296875 89.828125 -89.203125 C 95.253906 -90.109375 100.296875 -91.753906 104.953125 -94.140625 C 109.617188 -96.535156 113.394531 -99.894531 116.28125 -104.21875 C 119.164062 -108.539062 120.609375 -114.078125 120.609375 -120.828125 C 120.609375 -132.890625 115.976562 -141.671875 106.71875 -147.171875 C 97.46875 -152.671875 85.332031 -155.421875 70.3125 -155.421875 L 33.90625 -155.421875 Z M 33.90625 -87.84375 " />
                  </g>
                </g>
              </g>
              <g clipPath="url(#0565a346ca)">
                <path
                  fill="#ffffff"
                  d="M 0.0195312 172.769531 L 374.980469 172.769531 L 374.980469 202.019531 L 0.0195312 202.019531 L 0.0195312 172.769531 "
                  fillOpacity="1"
                  fillRule="nonzero"
                />
              </g>
              <g fill="#000000" fillOpacity="1">
                <g transform="translate(87.641757, 195.036405)">
                  <g>
                    <path d="M 12 -15.328125 L 13.96875 -15.328125 L 13.96875 0 L 12.21875 0 L 3.984375 -12.078125 L 3.984375 0 L 2.03125 0 L 2.03125 -15.328125 L 3.90625 -15.328125 L 12 -3.40625 Z M 12 -15.328125 " />
                  </g>
                </g>
              </g>
              <g fill="#000000" fillOpacity="1">
                <g transform="translate(106.815586, 195.036405)">
                  <g>
                    <path d="M 13.234375 -5.296875 C 13.234375 -4.117188 13.035156 -3.117188 12.640625 -2.296875 C 12.253906 -1.484375 11.648438 -0.859375 10.828125 -0.421875 C 10.003906 0.00390625 8.9375 0.21875 7.625 0.21875 C 6.289062 0.21875 5.210938 0 4.390625 -0.4375 C 3.566406 -0.882812 2.96875 -1.53125 2.59375 -2.375 C 2.21875 -3.21875 2.03125 -4.257812 2.03125 -5.5 L 2.03125 -15.328125 L 4.0625 -15.328125 L 4.0625 -5.203125 C 4.0625 -3.960938 4.367188 -3.035156 4.984375 -2.421875 C 5.597656 -1.804688 6.476562 -1.5 7.625 -1.5 C 8.394531 -1.5 9.050781 -1.632812 9.59375 -1.90625 C 10.132812 -2.175781 10.546875 -2.582031 10.828125 -3.125 C 11.117188 -3.675781 11.265625 -4.367188 11.265625 -5.203125 L 11.265625 -15.328125 L 13.234375 -15.328125 Z M 13.234375 -5.296875 " />
                  </g>
                </g>
              </g>
              <g fill="#000000" fillOpacity="1">
                <g transform="translate(124.85472, 195.036405)">
                  <g>
                    <path d="M 7.671875 -15.546875 C 8.742188 -15.546875 9.695312 -15.320312 10.53125 -14.875 C 11.363281 -14.425781 12.035156 -13.828125 12.546875 -13.078125 C 13.054688 -12.328125 13.359375 -11.5 13.453125 -10.59375 L 11.359375 -10.59375 C 11.242188 -11.195312 11.023438 -11.742188 10.703125 -12.234375 C 10.390625 -12.722656 9.972656 -13.109375 9.453125 -13.390625 C 8.941406 -13.679688 8.328125 -13.828125 7.609375 -13.828125 C 6.679688 -13.828125 5.894531 -13.609375 5.25 -13.171875 C 4.613281 -12.742188 4.128906 -12.078125 3.796875 -11.171875 C 3.472656 -10.265625 3.3125 -9.109375 3.3125 -7.703125 C 3.3125 -5.566406 3.675781 -4 4.40625 -3 C 5.144531 -2 6.210938 -1.5 7.609375 -1.5 C 8.328125 -1.5 8.941406 -1.648438 9.453125 -1.953125 C 9.972656 -2.253906 10.390625 -2.660156 10.703125 -3.171875 C 11.023438 -3.679688 11.242188 -4.234375 11.359375 -4.828125 L 13.453125 -4.828125 C 13.378906 -4.171875 13.203125 -3.539062 12.921875 -2.9375 C 12.648438 -2.332031 12.273438 -1.789062 11.796875 -1.3125 C 11.328125 -0.84375 10.75 -0.46875 10.0625 -0.1875 C 9.375 0.0820312 8.578125 0.21875 7.671875 0.21875 C 6.285156 0.21875 5.109375 -0.09375 4.140625 -0.71875 C 3.171875 -1.351562 2.425781 -2.257812 1.90625 -3.4375 C 1.394531 -4.625 1.140625 -6.050781 1.140625 -7.71875 C 1.140625 -9.375 1.394531 -10.785156 1.90625 -11.953125 C 2.414062 -13.117188 3.15625 -14.007812 4.125 -14.625 C 5.101562 -15.238281 6.285156 -15.546875 7.671875 -15.546875 Z M 7.671875 -15.546875 " />
                  </g>
                </g>
              </g>
              <g fill="#000000" fillOpacity="1">
                <g transform="translate(142.639341, 195.036405)">
                  <g>
                    <path d="M 2.03125 -15.328125 L 4.046875 -15.328125 L 4.046875 -1.765625 L 11.28125 -1.765625 L 11.28125 0 L 2.03125 0 Z M 2.03125 -15.328125 " />
                  </g>
                </g>
              </g>
              <g fill="#000000" fillOpacity="1">
                <g transform="translate(158.069735, 195.036405)">
                  <g>
                    <path d="M 2.03125 0 L 2.03125 -15.328125 L 11.6875 -15.328125 L 11.6875 -13.609375 L 4 -13.609375 L 4 -8.59375 L 10.921875 -8.59375 L 10.921875 -6.875 L 3.984375 -6.875 L 3.984375 -1.765625 L 11.890625 -1.75 L 11.890625 0 Z M 2.03125 0 " />
                  </g>
                </g>
              </g>
              <g fill="#000000" fillOpacity="1">
                <g transform="translate(174.412127, 195.036405)">
                  <g>
                    <path d="M 13.234375 -5.296875 C 13.234375 -4.117188 13.035156 -3.117188 12.640625 -2.296875 C 12.253906 -1.484375 11.648438 -0.859375 10.828125 -0.421875 C 10.003906 0.00390625 8.9375 0.21875 7.625 0.21875 C 6.289062 0.21875 5.210938 0 4.390625 -0.4375 C 3.566406 -0.882812 2.96875 -1.53125 2.59375 -2.375 C 2.21875 -3.21875 2.03125 -4.257812 2.03125 -5.5 L 2.03125 -15.328125 L 4.0625 -15.328125 L 4.0625 -5.203125 C 4.0625 -3.960938 4.367188 -3.035156 4.984375 -2.421875 C 5.597656 -1.804688 6.476562 -1.5 7.625 -1.5 C 8.394531 -1.5 9.050781 -1.632812 9.59375 -1.90625 C 10.132812 -2.175781 10.546875 -2.582031 10.828125 -3.125 C 11.117188 -3.675781 11.265625 -4.367188 11.265625 -5.203125 L 11.265625 -15.328125 L 13.234375 -15.328125 Z M 13.234375 -5.296875 " />
                  </g>
                </g>
              </g>
              <g fill="#000000" fillOpacity="1">
                <g transform="translate(192.451261, 195.036405)">
                  <g>
                    <path d="M 7.234375 0.21875 C 6.515625 0.21875 5.8125 0.128906 5.125 -0.046875 C 4.445312 -0.234375 3.832031 -0.503906 3.28125 -0.859375 C 2.726562 -1.222656 2.269531 -1.671875 1.90625 -2.203125 C 1.550781 -2.742188 1.328125 -3.367188 1.234375 -4.078125 L 3.28125 -4.078125 C 3.414062 -3.492188 3.671875 -3.003906 4.046875 -2.609375 C 4.421875 -2.210938 4.878906 -1.914062 5.421875 -1.71875 C 5.972656 -1.519531 6.570312 -1.421875 7.21875 -1.421875 C 7.9375 -1.421875 8.582031 -1.519531 9.15625 -1.71875 C 9.726562 -1.925781 10.175781 -2.21875 10.5 -2.59375 C 10.832031 -2.96875 11 -3.414062 11 -3.9375 C 11 -4.394531 10.894531 -4.789062 10.6875 -5.125 C 10.476562 -5.46875 10.175781 -5.75 9.78125 -5.96875 C 9.382812 -6.195312 8.898438 -6.378906 8.328125 -6.515625 L 5.328125 -7.203125 C 4.191406 -7.453125 3.300781 -7.894531 2.65625 -8.53125 C 2.019531 -9.164062 1.695312 -10.007812 1.6875 -11.0625 C 1.6875 -11.9375 1.921875 -12.707031 2.390625 -13.375 C 2.859375 -14.050781 3.503906 -14.578125 4.328125 -14.953125 C 5.148438 -15.328125 6.09375 -15.515625 7.15625 -15.515625 C 8.375 -15.515625 9.398438 -15.304688 10.234375 -14.890625 C 11.066406 -14.472656 11.695312 -13.925781 12.125 -13.25 C 12.550781 -12.570312 12.769531 -11.847656 12.78125 -11.078125 L 10.75 -11.078125 C 10.6875 -11.773438 10.484375 -12.328125 10.140625 -12.734375 C 9.796875 -13.140625 9.363281 -13.425781 8.84375 -13.59375 C 8.332031 -13.769531 7.773438 -13.859375 7.171875 -13.859375 C 6.734375 -13.859375 6.3125 -13.800781 5.90625 -13.6875 C 5.5 -13.582031 5.132812 -13.421875 4.8125 -13.203125 C 4.488281 -12.984375 4.226562 -12.707031 4.03125 -12.375 C 3.84375 -12.050781 3.75 -11.675781 3.75 -11.25 C 3.75 -10.695312 3.9375 -10.242188 4.3125 -9.890625 C 4.695312 -9.546875 5.382812 -9.253906 6.375 -9.015625 L 9.296875 -8.3125 C 10.054688 -8.144531 10.675781 -7.898438 11.15625 -7.578125 C 11.644531 -7.265625 12.019531 -6.90625 12.28125 -6.5 C 12.550781 -6.101562 12.738281 -5.6875 12.84375 -5.25 C 12.945312 -4.8125 13 -4.378906 13 -3.953125 C 13 -3.179688 12.769531 -2.476562 12.3125 -1.84375 C 11.851562 -1.21875 11.191406 -0.71875 10.328125 -0.34375 C 9.472656 0.03125 8.441406 0.21875 7.234375 0.21875 Z M 7.234375 0.21875 " />
                  </g>
                </g>
              </g>
              <g fill="#000000" fillOpacity="1">
                <g transform="translate(209.917744, 195.036405)">
                  <g />
                </g>
              </g>
              <g fill="#000000" fillOpacity="1">
                <g transform="translate(217.988516, 195.036405)">
                  <g>
                    <path d="M 2.03125 0 L 2.03125 -15.328125 L 6.953125 -15.328125 C 8.816406 -15.328125 10.226562 -14.984375 11.1875 -14.296875 C 12.144531 -13.609375 12.625 -12.617188 12.625 -11.328125 C 12.625 -10.515625 12.410156 -9.816406 11.984375 -9.234375 C 11.566406 -8.660156 10.832031 -8.1875 9.78125 -7.8125 C 10.382812 -7.6875 10.890625 -7.503906 11.296875 -7.265625 C 11.710938 -7.023438 12.046875 -6.742188 12.296875 -6.421875 C 12.546875 -6.097656 12.726562 -5.738281 12.84375 -5.34375 C 12.957031 -4.957031 13.015625 -4.550781 13.015625 -4.125 C 13.015625 -2.738281 12.519531 -1.703125 11.53125 -1.015625 C 10.539062 -0.335938 9.066406 0 7.109375 0 Z M 3.984375 -1.625 L 7.09375 -1.625 C 8.375 -1.625 9.347656 -1.832031 10.015625 -2.25 C 10.679688 -2.675781 11.015625 -3.328125 11.015625 -4.203125 C 11.015625 -4.847656 10.847656 -5.367188 10.515625 -5.765625 C 10.191406 -6.171875 9.75 -6.460938 9.1875 -6.640625 C 8.632812 -6.828125 8.015625 -6.921875 7.328125 -6.921875 L 3.984375 -6.921875 Z M 3.984375 -8.59375 L 7.328125 -8.59375 C 7.734375 -8.59375 8.132812 -8.628906 8.53125 -8.703125 C 8.925781 -8.785156 9.285156 -8.921875 9.609375 -9.109375 C 9.941406 -9.296875 10.210938 -9.550781 10.421875 -9.875 C 10.628906 -10.195312 10.734375 -10.601562 10.734375 -11.09375 C 10.734375 -11.976562 10.390625 -12.632812 9.703125 -13.0625 C 9.023438 -13.488281 8.140625 -13.703125 7.046875 -13.703125 L 3.984375 -13.703125 Z M 3.984375 -8.59375 " />
                  </g>
                </g>
              </g>
              <g fill="#000000" fillOpacity="1">
                <g transform="translate(235.391368, 195.036405)">
                  <g>
                    <path d="M 7.796875 0.21875 C 6.429688 0.21875 5.25 -0.0859375 4.25 -0.703125 C 3.257812 -1.316406 2.492188 -2.207031 1.953125 -3.375 C 1.410156 -4.550781 1.140625 -5.972656 1.140625 -7.640625 C 1.140625 -9.304688 1.410156 -10.726562 1.953125 -11.90625 C 2.503906 -13.082031 3.28125 -13.984375 4.28125 -14.609375 C 5.28125 -15.234375 6.453125 -15.546875 7.796875 -15.546875 C 9.160156 -15.546875 10.335938 -15.234375 11.328125 -14.609375 C 12.316406 -13.992188 13.078125 -13.097656 13.609375 -11.921875 C 14.148438 -10.742188 14.421875 -9.316406 14.421875 -7.640625 C 14.421875 -5.972656 14.148438 -4.550781 13.609375 -3.375 C 13.078125 -2.207031 12.316406 -1.316406 11.328125 -0.703125 C 10.335938 -0.0859375 9.160156 0.21875 7.796875 0.21875 Z M 7.796875 -1.5 C 8.742188 -1.5 9.550781 -1.710938 10.21875 -2.140625 C 10.882812 -2.566406 11.390625 -3.234375 11.734375 -4.140625 C 12.085938 -5.046875 12.265625 -6.203125 12.265625 -7.609375 C 12.265625 -9.035156 12.085938 -10.207031 11.734375 -11.125 C 11.378906 -12.050781 10.867188 -12.734375 10.203125 -13.171875 C 9.546875 -13.609375 8.742188 -13.828125 7.796875 -13.828125 C 6.867188 -13.828125 6.066406 -13.601562 5.390625 -13.15625 C 4.722656 -12.71875 4.207031 -12.039062 3.84375 -11.125 C 3.488281 -10.207031 3.3125 -9.035156 3.3125 -7.609375 C 3.3125 -6.203125 3.488281 -5.046875 3.84375 -4.140625 C 4.207031 -3.234375 4.722656 -2.566406 5.390625 -2.140625 C 6.066406 -1.710938 6.867188 -1.5 7.796875 -1.5 Z M 7.796875 -1.5 " />
                  </g>
                </g>
              </g>
              <g fill="#000000" fillOpacity="1">
                <g transform="translate(254.141007, 195.036405)">
                  <g>
                    <path d="M 7.796875 0.21875 C 6.429688 0.21875 5.25 -0.0859375 4.25 -0.703125 C 3.257812 -1.316406 2.492188 -2.207031 1.953125 -3.375 C 1.410156 -4.550781 1.140625 -5.972656 1.140625 -7.640625 C 1.140625 -9.304688 1.410156 -10.726562 1.953125 -11.90625 C 2.503906 -13.082031 3.28125 -13.984375 4.28125 -14.609375 C 5.28125 -15.234375 6.453125 -15.546875 7.796875 -15.546875 C 9.160156 -15.546875 10.335938 -15.234375 11.328125 -14.609375 C 12.316406 -13.992188 13.078125 -13.097656 13.609375 -11.921875 C 14.148438 -10.742188 14.421875 -9.316406 14.421875 -7.640625 C 14.421875 -5.972656 14.148438 -4.550781 13.609375 -3.375 C 13.078125 -2.207031 12.316406 -1.316406 11.328125 -0.703125 C 10.335938 -0.0859375 9.160156 0.21875 7.796875 0.21875 Z M 7.796875 -1.5 C 8.742188 -1.5 9.550781 -1.710938 10.21875 -2.140625 C 10.882812 -2.566406 11.390625 -3.234375 11.734375 -4.140625 C 12.085938 -5.046875 12.265625 -6.203125 12.265625 -7.609375 C 12.265625 -9.035156 12.085938 -10.207031 11.734375 -11.125 C 11.378906 -12.050781 10.867188 -12.734375 10.203125 -13.171875 C 9.546875 -13.609375 8.742188 -13.828125 7.796875 -13.828125 C 6.867188 -13.828125 6.066406 -13.601562 5.390625 -13.15625 C 4.722656 -12.71875 4.207031 -12.039062 3.84375 -11.125 C 3.488281 -10.207031 3.3125 -9.035156 3.3125 -7.609375 C 3.3125 -6.203125 3.488281 -5.046875 3.84375 -4.140625 C 4.207031 -3.234375 4.722656 -2.566406 5.390625 -2.140625 C 6.066406 -1.710938 6.867188 -1.5 7.796875 -1.5 Z M 7.796875 -1.5 " />
                  </g>
                </g>
              </g>
              <g fill="#000000" fillOpacity="1">
                <g transform="translate(272.890646, 195.036405)">
                  <g>
                    <path d="M 13.71875 0 L 11.5 0 L 6.71875 -7.875 L 4.0625 -4.828125 L 4.0625 0 L 2.03125 0 L 2.03125 -15.328125 L 4.0625 -15.328125 L 4.0625 -7.40625 L 10.9375 -15.328125 L 13.265625 -15.328125 L 8.15625 -9.3125 Z M 13.71875 0 " />
                  </g>
                </g>
              </g>
            </svg>
